<!-- filepath: /d:/Portfolio/portfolio/public/cplusplus.svg -->
<svg xmlns="http://www.w3.org/2000/svg" viewBox="0 0 128 128">
	<path fill="#00599C" d="M63.958 0L7.41 32v64l56.548 32 56.548-32V32z" />
	<path fill="#007ACC" d="M64 4.844L12.25 34.25v59.5L64 123.156l51.75-29.406v-59.5z" />
	<path fill="#004482" d="M64 4.844v118.312L12.25 93.75v-59.5z" />
	<path fill="#FFF" d="M64 95.75c-17.563 0-31.75-14.188-31.75-31.75S46.438 32.25 64 32.25c7.875 0 15.188 2.75 21.063 7.75l-8.188 9.75C73.75 46.25 69 44.5 64 44.5c-10.75 0-19.5 8.75-19.5 19.5S53.25 83.5 64 83.5c5 0 9.75-1.75 12.875-5.25l8.188 9.75c-5.875 5-13.188 7.75-21.063 7.75z" />
	<path fill="#FFF" d="M86.5 83.5l-3.25-3.25L80 76.75l-3.25-3.25L86.5 64l9.75 9.75L99.5 77l-3.25 3.25z" />
	<path fill="#FFF" d="M99.5 51.5l-3.25 3.25L86.5 64l-9.75-9.75L80 51.5l3.25-3.25L86.5 45l3.25 3.25z" />
</svg>
