<!-- filepath: /d:/Portfolio/portfolio/public/javascript.svg -->
<svg xmlns="http://www.w3.org/2000/svg" viewBox="0 0 630 630">
	<rect width="630" height="630" fill="#f7df1e" />
	<path d="M423.2 492.19c8.61 14.06 19.79 24.36 39.58 24.36 16.63 0 27.22-8.29 27.22-19.79 0-13.75-10.94-18.63-29.3-26.63l-10.06-4.32c-29.06-12.42-48.36-28.06-48.36-61.06 0-30.38 23.13-53.58 59.22-53.58 25.72 0 44.29 8.94 57.5 32.29l-31.5 20.25c-6.94-12.42-14.44-17.36-25.72-17.36-11.72 0-19.14 7.42-19.14 17.36 0 12.14 7.42 16.99 24.58 24.36l10.06 4.32c34.22 14.63 53.5 29.63 53.5 62.99 0 35.99-28.36 55.22-66.5 55.22-37.22 0-61.22-17.63-72.99-40.75zm-138.38 3.25c6.94 12.25 13.25 22.63 28.5 22.63 14.63 0 23.94-5.75 23.94-28.13V317.5h44.29v172.75c0 45.75-26.75 66.75-65.75 66.75-35.22 0-55.63-18.25-66.13-40.25z" />
</svg>
